HIERARCHY
ROOT Hips
{
    OFFSET 0.0 0.0 0.0
    CHANNELS 6 Xposition Yposition Zposition Zrotation Xrotation Yrotation
    JOINT LeftUpLeg
    {
        OFFSET 16.30003784899443 0.0 0.0
        CHANNELS 3 Zrotation Xrotation Yrotation
        JOINT LeftLeg
        {
            OFFSET 0.0 0.0 -61.47479213598169
            CHANNELS 3 Zrotation Xrotation Yrotation
            JOINT LeftFoot
            {
                OFFSET 0.0 0.0 -47.458801496151615
                CHANNELS 3 Zrotation Xrotation Yrotation
                JOINT LeftToeBase
                {
                    OFFSET 0.0 -11.89737931194513 0.0
                    CHANNELS 3 Zrotation Xrotation Yrotation
                    End Site
                    {
                        OFFSET 0 0 0
                    }
                }
            }
        }
    }
    JOINT RightUpLeg
    {
        OFFSET -16.30003784899443 0.0 0.0
        CHANNELS 3 Zrotation Xrotation Yrotation
        JOINT RightLeg
        {
            OFFSET 0.0 0.0 -61.47479213598169
            CHANNELS 3 Zrotation Xrotation Yrotation
            JOINT RightFoot
            {
                OFFSET 0.0 0.0 -47.458801496151615
                CHANNELS 3 Zrotation Xrotation Yrotation
                JOINT RightToeBase
                {
                    OFFSET 0.0 -11.89737931194513 0.0
                    CHANNELS 3 Zrotation Xrotation Yrotation
                    End Site
                    {
                        OFFSET 0 0 0
                    }
                }
            }
        }
    }
    JOINT Spine
    {
        OFFSET 0.0 0.0 11.590875352780808
        CHANNELS 3 Zrotation Xrotation Yrotation
        JOINT Spine1
        {
            OFFSET 0.0 0.0 11.129618675215193
            CHANNELS 3 Zrotation Xrotation Yrotation
            JOINT Spine2
            {
                OFFSET 0.0 0.0 11.129618675215193
                CHANNELS 3 Zrotation Xrotation Yrotation
                JOINT Spine3
                {
                    OFFSET 0.0 0.0 11.129618675215188
                    CHANNELS 3 Zrotation Xrotation Yrotation
                    JOINT Spine4
                    {
                        OFFSET 0.0 0.0 11.129618675215195
                        CHANNELS 3 Zrotation Xrotation Yrotation
                        JOINT RightShoulder
                        {
                            OFFSET -26.899029565422538 0.0 0.0
                            CHANNELS 3 Zrotation Xrotation Yrotation
                            JOINT RightArm
                            {
                                OFFSET -33.25400186051287 0.0 0.0
                                CHANNELS 3 Zrotation Xrotation Yrotation
                                JOINT RightForeArm
                                {
                                    OFFSET -33.171510194706435 0.0 0.0
                                    CHANNELS 3 Zrotation Xrotation Yrotation
                                    JOINT RightHand
                                    {
                                        OFFSET -10.515956763548012 0.0 0.0
                                        CHANNELS 3 Zrotation Xrotation Yrotation
                                        End Site
                                        {
                                            OFFSET 0 0 0
                                        }
                                    }
                                }
                            }
                        }
                        JOINT LeftShoulder
                        {
                            OFFSET 26.899029565422538 0.0 0.0
                            CHANNELS 3 Zrotation Xrotation Yrotation
                            JOINT LeftArm
                            {
                                OFFSET 33.25400186051287 0.0 0.0
                                CHANNELS 3 Zrotation Xrotation Yrotation
                                JOINT LeftForeArm
                                {
                                    OFFSET 33.171510194706435 0.0 0.0
                                    CHANNELS 3 Zrotation Xrotation Yrotation
                                    JOINT LeftHand
                                    {
                                        OFFSET 10.515956763548012 0.0 0.0
                                        CHANNELS 3 Zrotation Xrotation Yrotation
                                        End Site
                                        {
                                            OFFSET 0 0 0
                                        }
                                    }
                                }
                            }
                        }
                        JOINT Neck
                        {
                            OFFSET 0.0 0.0 11.129618603146017
                            CHANNELS 3 Zrotation Xrotation Yrotation
                            JOINT Head
                            {
                                OFFSET 0.0 0.0 26.432756008859528
                                CHANNELS 3 Zrotation Xrotation Yrotation
                                End Site
                                {
                                    OFFSET 0 0 0
                                }
                            }
                        }
                    }
                }
            }
        }
    }
}
MOTION
Frames: 5
Frame Time: 0.03333333333333333
30.85420972108841 -1.3022254038602115 455.6300445556641 30.619154285552913 -68.00667648826352 29.208499520808115 23.218072760147546 -32.75564159758395 -17.94215184673729 -14.945152168481076 4.490253746683746 45.02711696139974 -107.06410695448946 0.0 75.64953167465163 0.0 0.0 0.0 7.75926921891366 -7.460844314798126 19.70749552027267 -10.882075602471199 -5.183718838297847 -17.438097012327148 90.88336425566892 6.3611093629270335e-15 -62.25466486548041 0.0 0.0 0.0 0.1274451481736283 -20.350208335394417 -0.9168924456948099 0.0 0.0 0.0 0.0 0.0 0.0 0.0 0.0 0.0 0.0 0.0 0.0 179.0415450103976 -12.936501569499617 168.7726858923652 38.06713000864664 -1.4816972637552032e-15 -1.1710894278830268e-15 179.99999999999994 84.42820514149867 -179.99999999999997 0.0 0.0 0.0 -166.94884278234304 -8.58263196021232 -158.69237934833941 -37.634589091647214 -7.799652914532175e-15 7.023022202854853e-16 -7.50664179713199e-15 -64.41361409750428 -1.7884734022383015e-14 -1.3793457181406746e-32 -7.951386703658794e-16 -1.9878466759146984e-15 0.7550813384713331 2.8823151049785327e-15 -1.899279375690596e-17 0.0 0.0 0.0
30.047411763668066 -0.19878677465021605 455.4079410552979 27.512347964203833 -67.29899999899706 25.92700661142097 23.323952307835032 -33.34814530665313 -16.626478064089227 -10.4561753550677 3.374134359705858 45.71496875409933 -109.33571816864084 6.3611093629270335e-15 80.0272320458144 0.0 0.0 0.0 5.332158597438337 -10.602296398129175 18.816710675120152 -9.712454723383642 -4.870747869307145 -15.980299257970188 91.48483867768438 0.0 -63.345057416921115 0.0 0.0 0.0 0.23309503555914418 -21.364122571076326 -0.7974273505137526 0.0 0.0 0.0 0.0 0.0 0.0 0.0 0.0 0.0 0.0 0.0 0.0 179.38323947143863 -12.956697132001176 168.48964606880475 38.465392801513495 -1.8205949997376974e-14 6.3516342025084454e-15 180.0 81.59941181300641 -180.0 1.1034765745125397e-32 3.9756933518293955e-16 -3.1805546814635164e-15 -166.42212871138943 -10.729980267713728 -157.06081715307923 -30.58310193106794 3.70282375463865e-15 -1.0528127124469657e-14 3.685644038789153e-17 -51.65641631473089 -1.7489304125712088e-15 0.0 0.0 1.1927080055488188e-15 0.33546135792732035 -3.632460093277987e-15 -1.579650269939307e-15 0.0 0.0 0.0
29.296659457683564 0.820965712890029 455.1962368011475 24.717145007847645 -66.58807298381693 22.86858023969671 23.33784311962306 -33.7926254226575 -15.256133012740918 -6.481636496165262 2.236946518497962 45.73667054871905 -110.73452640462611 -3.1805546814635168e-15 83.26069552884124 0.0 0.0 0.0 3.3271212696276207 -13.367595745163419 17.864398580261202 -8.988586149046522 -4.744027613868617 -14.415353631320162 92.09463887425747 1.5902773407317584e-14 -64.47215513274146 0.0 0.0 -1.5902773407317584e-15 0.3843275904298739 -22.384625897699078 -0.582150346306215 0.0 0.0 -7.951386703658792e-16 0.0 0.0 -7.951386703658792e-16 0.0 0.0 -7.951386703658792e-16 0.0 0.0 -7.951386703658792e-16 179.31014289164148 -12.463438653372904 167.9257175222928 37.9320787913157 9.211524998120715e-15 -1.4841091277269122e-15 -179.99999999999997 78.58150860607219 179.99999999999997 0.0 -3.1805546814635164e-15 0.0 -168.4741486701375 -10.546636736397948 -155.97999293929644 -27.18624832022879 1.536858221820691e-14 -7.73664257740671e-15 -1.8799500581481337e-15 -29.957716700249133 1.1432060919897443e-14 0.0 0.0 -2.5842006786891076e-15 -0.206576518964897 6.061489098111516e-15 8.060671431049554e-16 0.0 0.0 0.0
28.58429528474808 1.7370092209428547 454.9937936782837 21.87540666972184 -65.97360431592082 19.621245943255097 23.377473883934577 -34.020495700495715 -13.876236087968204 -2.9128840174202923 1.0636050624072506 45.09709629478914 -111.86256395518065 -6.3611093629270335e-15 85.58362816584483 -6.361109362927033e-15 -8.827812596100317e-32 1.5902773407317582e-15 1.6085687988249773 -15.867780993845287 16.912177448574745 -7.124384500716343 -3.9838148063071124 -10.450965227832075 84.95162763388294 -1.2722218725854067e-14 -61.076841701524394 0.0 0.0 0.0 0.6662743568778523 -23.334489341911944 -0.2501866679316685 0.0 0.0 0.0 0.0 0.0 0.0 0.0 0.0 0.0 0.0 0.0 0.0 179.41612543592123 -11.943889334844338 167.41813667328762 37.10848357442905 2.015219309769875e-14 -5.086582785063775e-15 180.0 76.66359810114852 -180.0 0.0 0.0 0.0 -172.49716541468243 -8.7481468921167 -155.77547898861002 -25.96854186994947 1.4065015590160639e-14 -8.369140060129983e-16 -6.674940384477666e-16 -38.36316882745379 -2.127915637328256e-14 0.0 0.0 1.5902773407317584e-15 -0.8546463547931648 2.9190053979344333e-15 -1.5685506518373782e-15 0.0 0.0 0.0
27.983867597579955 2.460121574252844 454.8241996765137 19.799796219011483 -65.47840468349995 16.846975990249405 23.21897791789349 -33.915157092636875 -12.502388203445552 -0.003299973327294373 0.0012617161078117979 44.370501723911545 -113.20173243505619 3.1805546814635168e-15 87.15081894735316 0.0 -1.5902773407317584e-15 0.0 0.5468809812470151 -17.69614148031485 16.479043582053226 -5.591639050474968 -3.2396040564815003 -6.206759195640093 76.9315601088035 6.3611093629270335e-15 -59.014641541769116 0.0 0.0 0.0 0.975139841079155 -24.097168952803454 0.32541973505800953 0.0 0.0 0.0 0.0 0.0 0.0 0.0 0.0 0.0 0.0 0.0 0.0 179.60142031343943 -11.305460903783784 166.97828287011674 35.98982570894434 1.33878754576684e-14 -4.3486702978645335e-15 -180.0 77.23927173668447 180.0 0.0 0.0 0.0 -178.54750175003642 -5.541721048847433 -156.2791335642496 -28.705792338789983 -1.5952437237330088e-14 -9.827210331627603e-15 4.4955533164123895e-14 -81.79250956322598 1.7898259819333292e-14 0.0 0.0 2.5842006786891076e-15 -1.7956392162986827 6.757848931746065e-15 1.05903540942124e-16 0.0 0.0 0.0
